{
    "accessors" : [
        {
            "bufferView" : 0,
            "componentType" : 5121,
            "count" : 6,
            "max" : [
                3
            ],
            "min" : [
                0
            ],
            "type" : "SCALAR"
        },
        {
            "bufferView" : 1,
            "componentType" : 5126,
            "count" : 4,
            "max" : [
                1.0,
                0.0,
                1.0
            ],
            "min" : [
                -1.0,
                0.0,
                -1.0
            ],
            "type" : "VEC3"
        },
        {
            "bufferView" : 2,
            "componentType" : 5126,
            "count" : 4,
            "max" : [
                0.0,
                1.0,
                -0.0
            ],
            "min" : [
                0.0,
                1.0,
                -0.0
            ],
            "type" : "VEC3"
        },
        {
            "bufferView" : 3,
            "componentType" : 5123,
            "count" : 4,
            "max" : [
                0,
                0,
                0,
                0
            ],
            "min" : [
                0,
                0,
                0,
                0
            ],
            "type" : "VEC4"
        },
        {
            "bufferView" : 4,
            "componentType" : 5126,
            "count" : 4,
            "max" : [
                1.0,
                0.0,
                0.0,
                0.0
            ],
            "min" : [
                0.9981947541236877,
                0.0,
                0.0,
                0.0
            ],
            "type" : "VEC4"
        },
        {
            "bufferView" : 5,
            "componentType" : 5121,
            "count" : 372,
            "max" : [
                63
            ],
            "min" : [
                0
            ],
            "type" : "SCALAR"
        },
        {
            "bufferView" : 6,
            "componentType" : 5126,
            "count" : 64,
            "max" : [
                1.0,
                1.0,
                1.0
            ],
            "min" : [
                -1.0,
                -1.0,
                -1.0
            ],
            "type" : "VEC3"
        },
        {
            "bufferView" : 7,
            "componentType" : 5126,
            "count" : 64,
            "max" : [
                0.7278664708137512,
                0.6856898665428162,
                0.7278664708137512
            ],
            "min" : [
                -0.7278664708137512,
                -0.6856898665428162,
                -0.7278664708137512
            ],
            "type" : "VEC3"
        },
        {
            "bufferView" : 8,
            "componentType" : 5123,
            "count" : 64,
            "max" : [
                0,
                0,
                0,
                0
            ],
            "min" : [
                0,
                0,
                0,
                0
            ],
            "type" : "VEC4"
        },
        {
            "bufferView" : 9,
            "componentType" : 5126,
            "count" : 64,
            "max" : [
                1.0,
                0.0,
                0.0,
                0.0
            ],
            "min" : [
                0.9743760228157043,
                0.0,
                0.0,
                0.0
            ],
            "type" : "VEC4"
        },
        {
            "bufferView" : 10,
            "componentType" : 5126,
            "count" : 1,
            "max" : [
                1.0,
                0.0,
                0.0,
                0.0,
                0.0,
                1.0,
                0.0,
                0.0,
                0.0,
                0.0,
                1.0,
                0.0,
                0.9855794906616211,
                0.1785905957221985,
                -0.14586305618286133,
                1.0
            ],
            "min" : [
                1.0,
                0.0,
                0.0,
                0.0,
                0.0,
                1.0,
                0.0,
                0.0,
                0.0,
                0.0,
                1.0,
                0.0,
                0.9855794906616211,
                0.1785905957221985,
                -0.14586305618286133,
                1.0
            ],
            "type" : "MAT4"
        },
        {
            "bufferView" : 11,
            "componentType" : 5126,
            "count" : 1,
            "max" : [
                5.0,
                0.0,
                0.0,
                0.0,
                0.0,
                5.0,
                0.0,
                0.0,
                0.0,
                0.0,
                5.0,
                0.0,
                0.9855794906616211,
                -0.8214094042778015,
                -0.14586305618286133,
                1.0
            ],
            "min" : [
                5.0,
                0.0,
                0.0,
                0.0,
                0.0,
                5.0,
                0.0,
                0.0,
                0.0,
                0.0,
                5.0,
                0.0,
                0.9855794906616211,
                -0.8214094042778015,
                -0.14586305618286133,
                1.0
            ],
            "type" : "MAT4"
        }
    ],
    "asset" : {
        "generator" : "Khronos Blender glTF 2.0 exporter",
        "version" : "2.0"
    },
    "bufferViews" : [
        {
            "buffer" : 0,
            "byteLength" : 6,
            "byteOffset" : 0,
            "target" : 34963
        },
        {
            "buffer" : 0,
            "byteLength" : 48,
            "byteOffset" : 8,
            "target" : 34962
        },
        {
            "buffer" : 0,
            "byteLength" : 48,
            "byteOffset" : 56,
            "target" : 34962
        },
        {
            "buffer" : 0,
            "byteLength" : 32,
            "byteOffset" : 104,
            "target" : 34962
        },
        {
            "buffer" : 0,
            "byteLength" : 64,
            "byteOffset" : 136,
            "target" : 34962
        },
        {
            "buffer" : 0,
            "byteLength" : 372,
            "byteOffset" : 200,
            "target" : 34963
        },
        {
            "buffer" : 0,
            "byteLength" : 768,
            "byteOffset" : 572,
            "target" : 34962
        },
        {
            "buffer" : 0,
            "byteLength" : 768,
            "byteOffset" : 1340,
            "target" : 34962
        },
        {
            "buffer" : 0,
            "byteLength" : 512,
            "byteOffset" : 2108,
            "target" : 34962
        },
        {
            "buffer" : 0,
            "byteLength" : 1024,
            "byteOffset" : 2620,
            "target" : 34962
        },
        {
            "buffer" : 0,
            "byteLength" : 64,
            "byteOffset" : 3644
        },
        {
            "buffer" : 0,
            "byteLength" : 64,
            "byteOffset" : 3708
        }
    ],
    "buffers" : [
        {
            "byteLength" : 3772,
            "uri" : "cylinder_stage.bin"
        }
    ],
    "materials" : [
        {
            "name" : "Cylinder Metal",
            "pbrMetallicRoughness" : {
                "baseColorFactor" : [
                    0.7991029620170593,
                    0.24228118360042572,
                    0.09305896610021591,
                    1.0
                ],
                "metallicFactor" : 0.715976357460022,
                "roughnessFactor" : 0.11608392000198364
            }
        },
        {
            "name" : "Plane",
            "pbrMetallicRoughness" : {
                "baseColorFactor" : [
                    0.1747550070285797,
                    0.3458382785320282,
                    0.13111089169979095,
                    1.0
                ],
                "roughnessFactor" : 0.03181818127632141
            }
        }
    ],
    "meshes" : [
        {
            "name" : "Plane",
            "primitives" : [
                {
                    "attributes" : {
                        "JOINTS_0" : 3,
                        "NORMAL" : 2,
                        "POSITION" : 1,
                        "WEIGHTS_0" : 4
                    },
                    "indices" : 0,
                    "material" : 1
                }
            ]
        },
        {
            "name" : "Cylinder",
            "primitives" : [
                {
                    "attributes" : {
                        "JOINTS_0" : 8,
                        "NORMAL" : 7,
                        "POSITION" : 6,
                        "WEIGHTS_0" : 9
                    },
                    "indices" : 5,
                    "material" : 0
                }
            ]
        }
    ],
    "nodes" : [
        {
            "children" : [
                3
            ],
            "name" : "Armature",
            "translation" : [
                -0.9855794906616211,
                0.8214094042778015,
                0.14586305618286133
            ]
        },
        {
            "mesh" : 1,
            "name" : "Cylinder",
            "skin" : 0,
            "translation" : [
                0.0,
                1.0,
                -0.0
            ]
        },
        {
            "mesh" : 0,
            "name" : "Plane",
            "scale" : [
                5.0,
                5.0,
                5.0
            ],
            "skin" : 1
        },
        {
            "name" : "Armature_Bone"
        }
    ],
    "scene" : 0,
    "scenes" : [
        {
            "name" : "Scene",
            "nodes" : [
                0,
                1,
                2
            ]
        }
    ],
    "skins" : [
        {
            "inverseBindMatrices" : 10,
            "joints" : [
                3
            ],
            "skeleton" : 0
        },
        {
            "inverseBindMatrices" : 11,
            "joints" : [
                3
            ],
            "skeleton" : 0
        }
    ]
}
